<svg width="112" height="24" viewBox="0 0 112 24" fill="none" xmlns="http://www.w3.org/2000/svg">
<g opacity="0.16">
<path d="M67.0768 5.1309C66.2529 5.49228 65.3751 5.73182 64.4599 5.84812C65.4014 5.28597 66.12 4.4026 66.4578 3.33784C65.58 3.86122 64.6108 4.23091 63.5779 4.43722C62.7443 3.54969 61.5564 3 60.2604 3C57.7459 3 55.7217 5.0409 55.7217 7.54287C55.7217 7.90287 55.7521 8.24902 55.8269 8.57855C52.0511 8.3944 48.71 6.58473 46.4656 3.82799C46.0738 4.50783 45.8439 5.28598 45.8439 6.12366C45.8439 7.69656 46.6539 9.09086 47.8613 9.89808C47.1316 9.88423 46.4158 9.67239 45.8093 9.3387C45.8093 9.35255 45.8093 9.37055 45.8093 9.38855C45.8093 11.5956 47.3836 13.4288 49.448 13.8511C49.0783 13.9522 48.6754 14.0006 48.2573 14.0006C47.9665 14.0006 47.673 13.984 47.3974 13.9231C47.9859 15.7217 49.6557 17.044 51.6412 17.0869C50.096 18.2957 48.134 19.024 46.0101 19.024C45.6376 19.024 45.2804 19.0074 44.9232 18.9617C46.935 20.259 49.3193 20.9998 51.8905 20.9998C60.2479 20.9998 64.8171 14.0768 64.8171 8.07594C64.8171 7.87518 64.8102 7.68133 64.8005 7.48887C65.7019 6.84919 66.4592 6.05027 67.0768 5.1309Z" fill="black"/>
<path d="M15.5378 5.18705H17.4V1.94345C17.0787 1.89925 15.9738 1.7998 14.687 1.7998C12.0021 1.7998 10.1629 3.48875 10.1629 6.59296V9.44981H7.20001V13.0759H10.1629V22.1998H13.7955V13.0768H16.6385L17.0898 9.45066H13.7946V6.95251C13.7955 5.90445 14.0776 5.18705 15.5378 5.18705V5.18705Z" fill="black"/>
<path d="M100 8.3999C98.0149 8.3999 96.4 10.0148 96.4 11.9999C96.4 13.985 98.0149 15.5999 100 15.5999C101.985 15.5999 103.6 13.985 103.6 11.9999C103.6 10.0148 101.985 8.3999 100 8.3999Z" fill="black"/>
<path fill-rule="evenodd" clip-rule="evenodd" d="M90.4 17.6106V6.3892C90.4 4.18596 92.1861 2.3999 94.3893 2.3999H105.611C107.814 2.3999 109.6 4.18596 109.6 6.3892V17.6106C109.6 19.8138 107.814 21.5999 105.611 21.5999H94.3893C92.1861 21.5999 90.4 19.8138 90.4 17.6106ZM94.5599 9.96611C92.926 14.7018 97.2981 19.0739 102.034 17.44C103.63 16.8894 104.89 15.6299 105.44 14.0338C107.074 9.29803 102.702 4.92588 97.9661 6.55982C96.37 7.11037 95.1105 8.37002 94.5599 9.96611ZM106 6.59993C106.663 6.59993 107.2 6.06268 107.2 5.39993C107.2 4.73719 106.663 4.19993 106 4.19993C105.337 4.19993 104.8 4.73719 104.8 5.39993C104.8 6.06268 105.337 6.59993 106 6.59993Z" fill="black"/>
</g>
</svg>
